<?xml version="1.0" standalone="no"?>
<!DOCTYPE svg PUBLIC "-//W3C//DTD SVG 20010904//EN"
 "http://www.w3.org/TR/2001/REC-SVG-20010904/DTD/svg10.dtd">
<svg version="1.0" xmlns="http://www.w3.org/2000/svg"
 width="2320.000000pt" height="2320.000000pt" viewBox="0 0 2320.000000 2320.000000"
 preserveAspectRatio="xMidYMid meet">
<metadata>
Created by potrace 1.11, written by Peter Selinger 2001-2013
</metadata>
<g transform="translate(0.000000,2320.000000) scale(0.100000,-0.100000)"
fill="#000000" stroke="none">
<path d="M1658 14422 c-345 -229 -628 -420 -628 -425 0 -7 1213 -1832 1231
-1851 12 -13 1270 825 1264 841 -8 23 -1231 1853 -1238 1853 -1 0 -284 -188
-629 -418z"/>
<path d="M3565 14390 c-165 -110 -301 -204 -303 -209 -1 -4 139 -223 313 -485
210 -317 320 -474 328 -470 20 12 591 396 600 404 8 7 -620 960 -632 960 -3 0
-141 -90 -306 -200z"/>
<path d="M4315 13232 c-770 -516 -2024 -1355 -2787 -1866 -764 -510 -1390
-931 -1392 -935 -3 -5 1018 -1558 1038 -1578 7 -7 5647 3759 5644 3769 -6 18
-1089 1548 -1096 1547 -4 0 -637 -422 -1407 -937z"/>
<path d="M18507 13603 c-4 -3 -7 -787 -7 -1740 0 -1950 -5 -1812 77 -1982 37
-78 59 -109 127 -177 71 -70 98 -89 187 -132 125 -61 202 -81 332 -89 l97 -6
0 80 0 80 -82 6 c-274 21 -474 162 -551 386 l-22 66 -3 1758 -2 1757 -74 0
c-40 0 -76 -3 -79 -7z"/>
<path d="M19710 13420 l0 -191 78 3 77 3 0 185 0 185 -77 3 -78 3 0 -191z"/>
<path d="M643 13373 l-172 -115 116 -174 c64 -96 120 -174 125 -174 6 0 327
209 347 226 6 5 -228 354 -237 353 -4 0 -84 -52 -179 -116z"/>
<path d="M817 12556 c-257 -172 -470 -315 -473 -318 -4 -5 599 -922 626 -952
12 -12 962 621 958 638 -5 24 -623 945 -633 945 -5 0 -220 -141 -478 -313z"/>
<path d="M15285 12273 c-260 -23 -496 -105 -706 -245 -124 -82 -287 -245 -367
-367 l-62 -95 0 352 0 352 -80 0 -80 0 0 -1395 0 -1395 80 0 80 0 0 738 c0
434 4 774 10 827 30 265 135 487 322 681 221 228 490 353 821 380 l88 7 -3 81
-3 81 -30 1 c-16 1 -48 -1 -70 -3z"/>
<path d="M8780 12264 c-425 -64 -767 -276 -997 -619 -270 -402 -305 -954 -88
-1385 198 -394 545 -663 975 -756 108 -23 427 -26 535 -5 421 83 779 349 984
731 l51 95 0 -422 0 -423 80 0 80 0 0 1395 0 1395 -80 0 -80 0 0 -422 0 -423
-51 95 c-213 397 -586 665 -1019 735 -86 13 -322 19 -390 9z m343 -165 c301
-45 587 -205 773 -431 410 -496 381 -1207 -66 -1659 -101 -102 -191 -168 -319
-233 -204 -104 -377 -141 -611 -133 -280 11 -520 101 -733 276 -228 186 -386
457 -438 751 -19 108 -17 336 5 438 96 454 416 812 845 946 165 52 381 70 544
45z"/>
<path d="M10794 12256 c-3 -7 -4 -360 -2 -782 4 -827 4 -818 59 -1007 147
-501 587 -884 1117 -972 152 -25 409 -17 547 18 379 97 679 319 880 653 l35
58 0 -372 0 -372 80 0 80 0 0 1395 0 1395 -80 0 -80 0 0 -732 c0 -790 -2 -832
-54 -1009 -108 -371 -409 -692 -766 -817 -161 -56 -229 -67 -420 -67 -187 1
-283 17 -428 71 -422 159 -731 538 -791 968 -7 50 -11 350 -11 832 l0 754 -80
0 c-59 0 -82 -4 -86 -14z"/>
<path d="M16520 12264 c-14 -2 -52 -9 -85 -15 -163 -28 -378 -116 -522 -213
-206 -138 -393 -359 -493 -579 -141 -312 -163 -690 -58 -1012 76 -234 232
-468 419 -631 169 -146 405 -263 627 -309 81 -17 338 -38 353 -30 5 4 9 41 9
84 l0 78 -132 6 c-394 18 -729 202 -962 531 -212 297 -274 716 -160 1078 221
701 1021 1052 1696 744 179 -82 383 -254 496 -419 109 -158 188 -365 210 -548
l8 -69 -598 0 c-392 0 -598 -3 -599 -10 0 -5 0 -43 -1 -82 l0 -73 650 -3 650
-2 33 27 32 27 -6 111 c-31 623 -486 1152 -1107 1290 -72 16 -400 30 -460 19z"/>
<path d="M19710 10875 l0 -1395 80 0 80 0 0 1395 0 1395 -80 0 -80 0 0 -1395z"/>
<path d="M21445 12254 c-205 -34 -442 -136 -606 -258 -167 -126 -318 -305
-412 -491 -98 -192 -147 -399 -148 -628 -1 -374 130 -700 390 -969 217 -225
489 -367 796 -414 121 -19 383 -13 489 10 274 61 509 189 702 381 112 112 173
193 251 334 l53 96 0 -418 0 -417 80 0 80 0 0 1395 0 1395 -80 0 -80 0 0 -417
0 -418 -55 100 c-75 137 -141 223 -255 335 -268 265 -608 402 -988 399 -76 -1
-173 -7 -217 -15z m425 -159 c508 -83 906 -466 1016 -977 25 -115 25 -371 1
-486 -119 -558 -589 -963 -1148 -989 -228 -11 -407 25 -605 122 -333 162 -565
448 -661 812 -34 131 -43 364 -19 499 77 442 372 801 789 958 56 21 205 58
277 69 65 10 265 5 350 -8z"/>
<path d="M5505 11480 c-165 -110 -300 -206 -300 -214 0 -7 90 -149 200 -315
145 -218 204 -300 216 -297 12 2 575 375 608 403 5 4 -411 623 -418 623 -4 0
-141 -90 -306 -200z"/>
<path d="M4206 10615 c-340 -227 -622 -417 -627 -422 -6 -6 227 -364 607 -934
339 -508 620 -928 624 -932 4 -5 292 181 640 413 l632 421 -18 27 c-153 235
-1226 1837 -1232 1839 -4 1 -285 -184 -626 -412z"/>
<path d="M2756 9645 c-258 -173 -471 -316 -473 -319 -4 -3 385 -595 407 -619
9 -10 960 621 960 637 0 18 -402 616 -414 616 -6 0 -222 -142 -480 -315z"/>
<path d="M1932 9085 l-172 -115 117 -175 c64 -97 122 -174 129 -173 23 6 344
223 343 233 0 14 -223 338 -235 342 -5 2 -87 -49 -182 -112z"/>
</g>
</svg>
